<?xml version="1.0" encoding="utf-8"?>
<!-- Generator: Adobe Illustrator 18.0.0, SVG Export Plug-In . SVG Version: 6.00 Build 0)  -->
<!DOCTYPE svg PUBLIC "-//W3C//DTD SVG 1.1//EN" "http://www.w3.org/Graphics/SVG/1.1/DTD/svg11.dtd">
<svg version="1.1" id="Layer_1" xmlns="http://www.w3.org/2000/svg" xmlns:xlink="http://www.w3.org/1999/xlink" x="0px" y="0px"
	 viewBox="0 0 64.6 81.4" enable-background="new 0 0 64.6 81.4" xml:space="preserve">
<g>
	<defs>
		<rect id="SVGID_1_" y="0" width="64.6" height="81.4"/>
	</defs>
	<clipPath id="SVGID_2_">
		<use xlink:href="#SVGID_1_"  overflow="visible"/>
	</clipPath>
	
		<path clip-path="url(#SVGID_2_)" fill="none" stroke="#5E514D" stroke-width="2.5" stroke-linecap="round" stroke-linejoin="round" stroke-miterlimit="10" d="
		M57.5,50.3c1.5-7.4-2.3-8.9-5.8-8.9c-1.8,0-3.2,0.3-4.2,1.1"/>
	
		<circle clip-path="url(#SVGID_2_)" fill="none" stroke="#5E514D" stroke-width="2.5" stroke-linecap="round" stroke-linejoin="round" stroke-miterlimit="10" cx="51.6" cy="32.9" r="4.4"/>
	
		<path clip-path="url(#SVGID_2_)" fill="none" stroke="#5E514D" stroke-width="2.5" stroke-linecap="round" stroke-linejoin="round" stroke-miterlimit="10" d="
		M7.1,50.3c-1.5-7.4,2.3-8.9,5.8-8.9c1.8,0,3.2,0.3,4.2,1.1"/>
	
		<circle clip-path="url(#SVGID_2_)" fill="none" stroke="#5E514D" stroke-width="2.5" stroke-linecap="round" stroke-linejoin="round" stroke-miterlimit="10" cx="12.9" cy="32.9" r="4.4"/>
	
		<path clip-path="url(#SVGID_2_)" fill="none" stroke="#5E514D" stroke-width="2.5" stroke-linecap="round" stroke-linejoin="round" stroke-miterlimit="10" d="
		M26.4,62.7c1.7,3,3.9,6.3,5.9,8.7c14.7-17.8,16.6-38.1,0-38.1c-9.2,0-12.6,4.7-11.5,12c0.8,5.5,6.2,15.2,18.1,17.4"/>
	
		<circle clip-path="url(#SVGID_2_)" fill="none" stroke="#5E514D" stroke-width="2.5" stroke-linecap="round" stroke-linejoin="round" stroke-miterlimit="10" cx="32.3" cy="23.6" r="5.9"/>
	
		<path clip-path="url(#SVGID_2_)" fill="none" stroke="#5E514D" stroke-width="2.5" stroke-linecap="round" stroke-linejoin="round" stroke-miterlimit="10" d="
		M1.3,30.3c0,0.7-0.1,1.4-0.1,2.1c0,13.5,8.6,24.9,20.6,29.2"/>
	
		<path clip-path="url(#SVGID_2_)" fill="none" stroke="#5E514D" stroke-width="2.5" stroke-linecap="round" stroke-linejoin="round" stroke-miterlimit="10" d="
		M59.9,18.1C54.8,8.1,44.3,1.3,32.3,1.3C20.2,1.3,9.8,8.1,4.6,18.2"/>
	
		<path clip-path="url(#SVGID_2_)" fill="none" stroke="#5E514D" stroke-width="2.5" stroke-linecap="round" stroke-linejoin="round" stroke-miterlimit="10" d="
		M38.9,62.7c0.2-0.1,0.5-0.1,0.7-0.2l0.6-0.2c13.3-3.5,23.1-15.6,23.1-30c0-0.7,0-1.4-0.1-2.1"/>
	
		<line clip-path="url(#SVGID_2_)" fill="none" stroke="#5E514D" stroke-width="2.5" stroke-linecap="round" stroke-linejoin="round" stroke-miterlimit="10" x1="41.1" y1="80.1" x2="23.5" y2="80.1"/>
</g>
</svg>
