<?xml version="1.0" encoding="utf-8"?>
<!-- Generator: Adobe Illustrator 18.0.0, SVG Export Plug-In . SVG Version: 6.00 Build 0)  -->
<!DOCTYPE svg PUBLIC "-//W3C//DTD SVG 1.1//EN" "http://www.w3.org/Graphics/SVG/1.1/DTD/svg11.dtd">
<svg version="1.1" id="Layer_1" xmlns="http://www.w3.org/2000/svg" xmlns:xlink="http://www.w3.org/1999/xlink" x="0px" y="0px"
	 viewBox="0 0 71.5 81.3" enable-background="new 0 0 71.5 81.3" xml:space="preserve">
<g>
	<defs>
		<rect id="SVGID_1_" y="0" width="71.5" height="81.3"/>
	</defs>
	<clipPath id="SVGID_2_">
		<use xlink:href="#SVGID_1_"  overflow="visible"/>
	</clipPath>
	
		<line clip-path="url(#SVGID_2_)" fill="none" stroke="#5E514D" stroke-width="2.5" stroke-linecap="round" stroke-linejoin="round" stroke-miterlimit="10" x1="45.5" y1="80.1" x2="25.9" y2="80"/>
	
		<circle clip-path="url(#SVGID_2_)" fill="none" stroke="#5E514D" stroke-width="2.5" stroke-linecap="round" stroke-linejoin="round" stroke-miterlimit="10" cx="35.8" cy="35.7" r="34.5"/>
	
		<path clip-path="url(#SVGID_2_)" fill="none" stroke="#5E514D" stroke-width="2.5" stroke-linecap="round" stroke-linejoin="round" stroke-miterlimit="10" d="
		M17.5,46.7l2.9,0.8c0.9,0.2,1.9-0.3,2.1-1.2l7.7-29c0.2-0.9-0.3-1.9-1.2-2.1l-2.9-0.8c-0.9-0.2-1.9,0.3-2.1,1.2l-7.7,29
		C16.1,45.5,16.6,46.4,17.5,46.7z"/>
	
		<path clip-path="url(#SVGID_2_)" fill="none" stroke="#5E514D" stroke-width="2.5" stroke-linecap="round" stroke-linejoin="round" stroke-miterlimit="10" d="
		M20.9,27.6L18.6,27c-1.5-0.4-3.1,0.5-3.5,2L15,29.7c-0.4,1.5,0.5,3.1,2,3.5l2.2,0.6"/>
	
		<path clip-path="url(#SVGID_2_)" fill="none" stroke="#5E514D" stroke-width="2.5" stroke-linecap="round" stroke-linejoin="round" stroke-miterlimit="10" d="
		M22.5,46.2c1.9-0.9,11.2-4.7,25.5-0.9l3.6-13.5c-13.9-3.7-19.5-10.7-21.2-13.2"/>
	
		<path clip-path="url(#SVGID_2_)" fill="none" stroke="#5E514D" stroke-width="2.5" stroke-linecap="round" stroke-linejoin="round" stroke-miterlimit="10" d="
		M51.7,31.8l3.1,0.8c3.8,1,6,4.9,5,8.7c-1,3.8-4.9,6-8.7,5L48,45.5"/>
	
		<path clip-path="url(#SVGID_2_)" fill="none" stroke="#5E514D" stroke-width="2.5" stroke-linecap="round" stroke-linejoin="round" stroke-miterlimit="10" d="
		M49.1,45.8l-7.2,13.3c-0.6,1.1-1.8,1.6-3,1.3c-1.6-0.4-2.4-2.3-1.6-3.8l3.5-6.4c1.2-2.1,0-5.7-2.6-6.4"/>
</g>
</svg>
