<?xml version="1.0" encoding="utf-8"?>
<!-- Generator: Adobe Illustrator 18.0.0, SVG Export Plug-In . SVG Version: 6.00 Build 0)  -->
<!DOCTYPE svg PUBLIC "-//W3C//DTD SVG 1.1//EN" "http://www.w3.org/Graphics/SVG/1.1/DTD/svg11.dtd">
<svg version="1.1" id="Layer_1" xmlns="http://www.w3.org/2000/svg" xmlns:xlink="http://www.w3.org/1999/xlink" x="0px" y="0px"
	 viewBox="0 0 71.5 81.4" enable-background="new 0 0 71.5 81.4" xml:space="preserve">
<g>
	<defs>
		<rect id="SVGID_1_" y="0" width="71.5" height="81.4"/>
	</defs>
	<clipPath id="SVGID_2_">
		<use xlink:href="#SVGID_1_"  overflow="visible"/>
	</clipPath>
	
		<line clip-path="url(#SVGID_2_)" fill="none" stroke="#5E514D" stroke-width="2.5" stroke-linecap="round" stroke-linejoin="round" stroke-miterlimit="10" x1="45.3" y1="80.2" x2="25.7" y2="80"/>
	
		<circle clip-path="url(#SVGID_2_)" fill="none" stroke="#5E514D" stroke-width="2.5" stroke-linecap="round" stroke-linejoin="round" stroke-miterlimit="10" cx="35.7" cy="35.7" r="34.5"/>
	<path clip-path="url(#SVGID_2_)" fill="#5E514D" d="M16.8,19.3c-1.1-0.7-2.6-0.3-3.3,0.9l-1.9,3.3c-0.3,0.6-0.4,1.2-0.2,1.8
		c0.2,0.6,0.6,1.1,1.1,1.5l2.2,1.3c-0.3,0.9-0.6,1.9-0.8,2.8h-2.5C10.1,30.9,9,32,9,33.4v3.8c0,1.3,1.1,2.4,2.4,2.4h2.5
		c0.2,1,0.4,1.9,0.8,2.8l-2.2,1.2c-0.6,0.3-1,0.8-1.1,1.5c-0.2,0.6-0.1,1.3,0.2,1.8l1.9,3.3c0.7,1.2,2.1,1.5,3.3,0.9L19,50
		c0.6,0.7,1.3,1.4,2.1,2.1l-1.3,2.2c-0.7,1.2-0.3,2.6,0.9,3.3l3.3,1.9c0.5,0.3,1.2,0.1,1.5-0.4c0.3-0.5,0.1-1.2-0.4-1.5l-3.3-1.9
		c-0.1,0-0.1-0.1-0.1-0.2l1.7-3c0.3-0.5,0.2-1.1-0.3-1.4c-1.1-0.9-2.2-2-3.1-3.1c-0.3-0.4-1-0.6-1.4-0.3l-3,1.7
		c-0.1,0-0.2,0-0.2-0.1l-1.9-3.3l0.1-0.2l3-1.7c0.5-0.3,0.7-0.9,0.5-1.4c-0.5-1.4-0.9-2.8-1.1-4.2c-0.1-0.6-0.6-1-1.1-1h-3.4
		c-0.1,0-0.2-0.1-0.2-0.2v-3.8c0-0.1,0.1-0.2,0.2-0.2h3.4c0.6,0,1-0.4,1.1-1c0.2-1.4,0.6-2.9,1.1-4.2c0.2-0.5,0-1.1-0.5-1.4l-3-1.7
		c-0.1,0-0.1-0.1-0.1-0.2l1.9-3.3c0-0.1,0.1-0.1,0.2-0.1l3,1.7c0.5,0.3,1.1,0.2,1.4-0.3c0.9-1.1,2-2.2,3.1-3.1
		c0.4-0.3,0.6-1,0.3-1.4l-1.7-3c0-0.1,0-0.2,0.1-0.2l3.3-1.9c0.1,0,0.2,0,0.2,0.1l1.7,3c0.3,0.5,0.9,0.7,1.4,0.5
		c1.4-0.5,2.8-0.9,4.2-1.1c0.6-0.1,1-0.6,1-1.1v-3.4c0-0.1,0.1-0.2,0.2-0.2h3.8c0.1,0,0.2,0.1,0.2,0.2v3.4c0,0.6,0.4,1,1,1.1
		c1.4,0.2,2.9,0.6,4.2,1.1c0.5,0.2,1.1,0,1.4-0.5l1.7-3c0-0.1,0.1-0.1,0.2-0.1l3.3,1.9c0.1,0,0.1,0.1,0.1,0.2l-1.7,3
		c-0.3,0.5-0.2,1.1,0.3,1.4c1.1,0.9,2.2,2,3.1,3.1c0.3,0.4,1,0.6,1.4,0.3l3-1.7c0.1,0,0.2,0,0.2,0.1l1.9,3.3c0,0.1,0,0.2-0.1,0.2
		l-3,1.7c-0.5,0.3-0.7,0.9-0.5,1.4c0.5,1.4,0.9,2.8,1.1,4.2c0.1,0.6,0.6,1,1.1,1h3.4c0.1,0,0.2,0.1,0.2,0.2v3.8
		c0,0.1-0.1,0.2-0.2,0.2h-3.4c-0.6,0-1,0.4-1.1,1c-0.2,1.4-0.6,2.9-1.1,4.2c-0.2,0.5,0,1.1,0.5,1.4l3,1.7c0.1,0,0.1,0.1,0.1,0.2
		L56,49.2c0,0.1-0.1,0.1-0.2,0.1l-3-1.7c-0.5-0.3-1.1-0.2-1.4,0.3c-0.9,1.1-2,2.2-3.1,3.1c-0.4,0.3-0.5,1-0.3,1.4l1.7,3
		c0,0.1,0,0.2-0.1,0.2l-3.3,1.9c-0.5,0.3-0.7,1-0.4,1.5c0.2,0.4,0.6,0.6,1,0.6c0.2,0,0.4,0,0.6-0.2l3.3-1.9c1.2-0.7,1.5-2.1,0.9-3.3
		L50.4,52c0.7-0.6,1.4-1.3,2.1-2.1l2.2,1.3c0.6,0.3,1.2,0.4,1.8,0.2c0.6-0.2,1.1-0.6,1.5-1.1l1.9-3.3c0.3-0.6,0.4-1.2,0.2-1.8
		C60,44.5,59.6,44,59,43.7l-2.2-1.2c0.3-0.9,0.6-1.9,0.8-2.8h2.5c1.3,0,2.4-1.1,2.4-2.4v-3.8c0-1.3-1.1-2.4-2.4-2.4h-2.5
		c-0.2-1-0.4-1.9-0.8-2.8l2.2-1.3c1.2-0.7,1.5-2.1,0.9-3.3L58,20.2c-0.7-1.2-2.1-1.5-3.3-0.9l-2.2,1.3c-0.6-0.7-1.3-1.4-2.1-2.1
		l1.3-2.2c0.3-0.6,0.4-1.2,0.2-1.8c-0.2-0.6-0.6-1.1-1.1-1.5l-3.3-1.9c-0.6-0.3-1.2-0.4-1.8-0.2c-0.6,0.2-1.1,0.6-1.5,1.1l-1.3,2.2
		c-0.9-0.3-1.9-0.6-2.8-0.8v-2.5c0-1.3-1.1-2.4-2.4-2.4h-3.8c-1.3,0-2.4,1.1-2.4,2.4v2.5c-1,0.2-1.9,0.4-2.8,0.8L27.3,12
		c-0.7-1.2-2.1-1.5-3.3-0.9l-3.3,1.9c-1.2,0.7-1.5,2.1-0.9,3.3l1.3,2.2c-0.7,0.6-1.4,1.3-2.1,2.1L16.8,19.3z"/>
	<path clip-path="url(#SVGID_2_)" fill="#5E514D" d="M35.8,22.1c3.5,0,6.8,1.4,9.3,3.9c4.6,4.6,5.2,12.1,1.2,17.3
		c-0.4,0.5-0.3,1.2,0.2,1.6C46.7,45,47,45,47.2,45c0.3,0,0.7-0.2,0.9-0.4c4.6-6.1,4-14.8-1.4-20.3c-2.9-2.9-6.8-4.5-11-4.5
		c-4.1,0-8,1.6-10.9,4.5c-5.4,5.4-6,14.1-1.4,20.3c0.4,0.5,1.1,0.6,1.6,0.2c0.5-0.4,0.6-1.1,0.2-1.6c-4-5.2-3.4-12.7,1.2-17.3
		C28.9,23.5,32.2,22.1,35.8,22.1"/>
	
		<polyline clip-path="url(#SVGID_2_)" fill="none" stroke="#5E514D" stroke-width="2.5" stroke-linecap="round" stroke-linejoin="round" stroke-miterlimit="10" points="
		29.3,68.5 29.3,40.9 36.2,30.5 43.1,40.9 43.1,68.5 	"/>
	
		<polyline clip-path="url(#SVGID_2_)" fill="none" stroke="#5E514D" stroke-width="2.5" stroke-linecap="round" stroke-linejoin="round" stroke-miterlimit="10" points="
		29.3,41.8 42.4,41.8 36.2,41.8 36.2,63.2 	"/>
</g>
</svg>
