<?xml version="1.0" encoding="utf-8"?>
<!-- Generator: Adobe Illustrator 18.0.0, SVG Export Plug-In . SVG Version: 6.00 Build 0)  -->
<!DOCTYPE svg PUBLIC "-//W3C//DTD SVG 1.1//EN" "http://www.w3.org/Graphics/SVG/1.1/DTD/svg11.dtd">
<svg version="1.1" id="Layer_1" xmlns="http://www.w3.org/2000/svg" xmlns:xlink="http://www.w3.org/1999/xlink" x="0px" y="0px"
	 viewBox="0 0 80.5 81.4" enable-background="new 0 0 80.5 81.4" xml:space="preserve">
<g>
	<defs>
		<rect id="SVGID_1_" y="0" width="80.5" height="81.4"/>
	</defs>
	<clipPath id="SVGID_2_">
		<use xlink:href="#SVGID_1_"  overflow="visible"/>
	</clipPath>
	
		<path clip-path="url(#SVGID_2_)" fill="none" stroke="#fff" stroke-width="2.5" stroke-linecap="round" stroke-linejoin="round" stroke-miterlimit="10" d="
		M20.8,47.9l10-20.3c0.6-1.2,0.1-2.6-1.1-3.2L24,21.6c-1.2-0.6-2.6-0.1-3.2,1L10.1,42.9"/>
	
		<path clip-path="url(#SVGID_2_)" fill="none" stroke="#fff" stroke-width="2.5" stroke-linecap="round" stroke-linejoin="round" stroke-miterlimit="10" d="
		M1.3,42.6l8.5,0.2c0.8,0,1.6,0.2,2.3,0.6l8.4,4.3c0.5,0.2,0.9,0.6,1.3,0.9c0.9,0.8,2.5,2.4,3.9,3.7c1.7,1.5,3.3,2.5,5.4,3.7
		c5,2.6,11.8,6,11.8,6c1.3,0.8,3,0.3,3.8-1c0.8-1.3,0.3-3-1-3.8"/>
	
		<path clip-path="url(#SVGID_2_)" fill="none" stroke="#fff" stroke-width="2.5" stroke-linecap="round" stroke-linejoin="round" stroke-miterlimit="10" d="
		M36.5,52.5L50,59.4c1.3,0.8,3,0.3,3.8-1c0.8-1.3,0.3-3-1-3.8l-13.5-6.9"/>
	
		<path clip-path="url(#SVGID_2_)" fill="none" stroke="#fff" stroke-width="2.5" stroke-linecap="round" stroke-linejoin="round" stroke-miterlimit="10" d="
		M43.3,43.6l13.5,6.9c1.3,0.8,1.7,2.5,1,3.8c-0.8,1.3-2.5,1.7-3.8,1l-1.4-0.7"/>
	
		<path clip-path="url(#SVGID_2_)" fill="none" stroke="#fff" stroke-width="2.5" stroke-linecap="round" stroke-linejoin="round" stroke-miterlimit="10" d="
		M55,49.6c1.3,0.8,3,0.3,3.8-1c0.8-1.3,0.3-3-1-3.8l-6.9-3.5"/>
	
		<path clip-path="url(#SVGID_2_)" fill="none" stroke="#fff" stroke-width="2.5" stroke-linecap="round" stroke-linejoin="round" stroke-miterlimit="10" d="
		M55,23.9l10.5,16.7c0.7,1.1,2.1,1.4,3.2,0.7l6.2-4.2c1-0.7,1.3-2.1,0.6-3.1l-11-16.4"/>
	
		<path clip-path="url(#SVGID_2_)" fill="none" stroke="#fff" stroke-width="2.5" stroke-linecap="round" stroke-linejoin="round" stroke-miterlimit="10" d="
		M57.1,35.7c-6.5,4.1-13.2,1.2-14.6-1.3c0,0-1.8,1.1-5.5,3.2c-2.1,1.2-3.7,0-4.7-1.3c-0.8-1-0.4-2.5,0.7-3.1
		c3.6-2.1,11.4-6.6,12.5-7.2c1.5-0.8,3.1-0.2,4.4,0c1.3,0.2,2.6-0.4,3.6-1c1-0.6,25.5-17.1,25.5-17.1"/>
	<path clip-path="url(#SVGID_2_)" fill="#fff" d="M20.2,40.3c0,1-0.8,1.8-1.8,1.8s-1.8-0.8-1.8-1.8c0-1,0.8-1.8,1.8-1.8
		S20.2,39.3,20.2,40.3"/>
	<path clip-path="url(#SVGID_2_)" fill="#fff" d="M70.7,34.2c0,1-0.8,1.8-1.8,1.8s-1.8-0.8-1.8-1.8c0-1,0.8-1.8,1.8-1.8
		S70.7,33.2,70.7,34.2"/>
	
		<line clip-path="url(#SVGID_2_)" fill="none" stroke="#fff" stroke-width="2.5" stroke-linecap="round" stroke-linejoin="round" stroke-miterlimit="10" x1="54.3" y1="80.1" x2="34.7" y2="80.1"/>
	
		<path clip-path="url(#SVGID_2_)" fill="none" stroke="#fff" stroke-width="2.5" stroke-linecap="round" stroke-linejoin="round" stroke-miterlimit="10" d="
		M14.8,53c6,10.3,17.1,17.2,29.9,17.2c19.1,0,34.5-15.4,34.5-34.5c0-3.4-0.5-6.7-1.4-9.7"/>
	
		<path clip-path="url(#SVGID_2_)" fill="none" stroke="#fff" stroke-width="2.5" stroke-linecap="round" stroke-linejoin="round" stroke-miterlimit="10" d="
		M66,8.6C60.1,4,52.7,1.2,44.7,1.2c-18.1,0-33,14-34.4,31.8"/>
</g>
</svg>
