<?xml version="1.0" encoding="utf-8"?>
<!-- Generator: Adobe Illustrator 18.0.0, SVG Export Plug-In . SVG Version: 6.00 Build 0)  -->
<!DOCTYPE svg PUBLIC "-//W3C//DTD SVG 1.1//EN" "http://www.w3.org/Graphics/SVG/1.1/DTD/svg11.dtd">
<svg version="1.1" id="Layer_1" xmlns="http://www.w3.org/2000/svg" xmlns:xlink="http://www.w3.org/1999/xlink" x="0px" y="0px"
	 viewBox="0 0 71.5 81.3" enable-background="new 0 0 71.5 81.3" xml:space="preserve">
<g>
	<defs>
		<rect id="SVGID_1_" y="0" width="71.5" height="81.3"/>
	</defs>
	<clipPath id="SVGID_2_">
		<use xlink:href="#SVGID_1_"  overflow="visible"/>
	</clipPath>
	
		<line clip-path="url(#SVGID_2_)" fill="none" stroke="#5E514D" stroke-width="2.5" stroke-linecap="round" stroke-linejoin="round" stroke-miterlimit="10" x1="45.2" y1="80.1" x2="25.6" y2="80"/>
	
		<circle clip-path="url(#SVGID_2_)" fill="none" stroke="#5E514D" stroke-width="2.5" stroke-linecap="round" stroke-linejoin="round" stroke-miterlimit="10" cx="35.8" cy="35.7" r="34.5"/>
	<path clip-path="url(#SVGID_2_)" fill="#5E514D" d="M42.5,18.8c-3.3-1.2-5.5-2.7-6.5-4.6c-0.1-0.1-0.2-0.2-0.3-0.2h0
		c-0.1,0-0.2,0.1-0.3,0.1c-1.3,2-3,3.3-6.5,4.6c-0.1,0.1-0.2,0.2-0.2,0.3c0,0.1,0.2,0.3,0.3,0.3h13.3c0.1,0,0.3-0.1,0.3-0.3
		C42.7,19,42.6,18.9,42.5,18.8"/>
	
		<line clip-path="url(#SVGID_2_)" fill="none" stroke="#5E514D" stroke-width="2.5" stroke-linecap="round" stroke-linejoin="round" stroke-miterlimit="10" x1="4.7" y1="63.4" x2="66.8" y2="63.4"/>
	
		<polyline clip-path="url(#SVGID_2_)" fill="none" stroke="#5E514D" stroke-width="2.5" stroke-linecap="round" stroke-linejoin="round" stroke-miterlimit="10" points="
		19.5,63.4 19.5,51.3 51.9,51.3 51.9,63.4 	"/>
	
		<polyline clip-path="url(#SVGID_2_)" fill="none" stroke="#5E514D" stroke-width="2.5" stroke-linecap="round" stroke-linejoin="round" stroke-miterlimit="10" points="
		31.7,63.4 31.7,56.7 39.8,56.7 39.8,63.4 	"/>
	
		<polyline clip-path="url(#SVGID_2_)" fill="none" stroke="#5E514D" stroke-width="2.5" stroke-linecap="round" stroke-linejoin="round" stroke-miterlimit="10" points="
		22.2,51.3 22.2,9.4 49.2,9.4 49.2,51.3 	"/>
	
		<line clip-path="url(#SVGID_2_)" fill="none" stroke="#5E514D" stroke-width="2.5" stroke-linecap="round" stroke-linejoin="round" stroke-miterlimit="10" x1="27.6" y1="24.4" x2="27.6" y2="47.2"/>
	
		<line clip-path="url(#SVGID_2_)" fill="none" stroke="#5E514D" stroke-width="2.5" stroke-linecap="round" stroke-linejoin="round" stroke-miterlimit="10" x1="33" y1="24.4" x2="33" y2="47.2"/>
	
		<line clip-path="url(#SVGID_2_)" fill="none" stroke="#5E514D" stroke-width="2.5" stroke-linecap="round" stroke-linejoin="round" stroke-miterlimit="10" x1="38.4" y1="24.4" x2="38.4" y2="47.2"/>
	
		<line clip-path="url(#SVGID_2_)" fill="none" stroke="#5E514D" stroke-width="2.5" stroke-linecap="round" stroke-linejoin="round" stroke-miterlimit="10" x1="43.8" y1="24.4" x2="43.8" y2="47.2"/>
</g>
</svg>
