<?xml version="1.0" encoding="utf-8"?>
<!-- Generator: Adobe Illustrator 18.0.0, SVG Export Plug-In . SVG Version: 6.00 Build 0)  -->
<!DOCTYPE svg PUBLIC "-//W3C//DTD SVG 1.1//EN" "http://www.w3.org/Graphics/SVG/1.1/DTD/svg11.dtd">
<svg version="1.1" id="Layer_1" xmlns="http://www.w3.org/2000/svg" xmlns:xlink="http://www.w3.org/1999/xlink" x="0px" y="0px"
	 viewBox="0 0 73.3 81.4" enable-background="new 0 0 73.3 81.4" xml:space="preserve">
<g>
	<defs>
		<rect id="SVGID_1_" y="0" width="73.3" height="81.4"/>
	</defs>
	<clipPath id="SVGID_2_">
		<use xlink:href="#SVGID_1_"  overflow="visible"/>
	</clipPath>
	
		<line clip-path="url(#SVGID_2_)" fill="none" stroke="#5E514D" stroke-width="2.5" stroke-linecap="round" stroke-linejoin="round" stroke-miterlimit="10" x1="47.1" y1="80.1" x2="27.5" y2="80.1"/>
	
		<path clip-path="url(#SVGID_2_)" fill="none" stroke="#5E514D" stroke-width="2.5" stroke-linecap="round" stroke-linejoin="round" stroke-miterlimit="10" d="
		M43,53l9.7-2.1c0.9-0.2,2.1,0.2,2.5,1.2c0.4,1-0.3,2-1.2,2.5L37,61.8c-2.7,1-6,1.5-9,1.5c-2,0-3.6-0.2-5.5-0.7l-1.9-0.6"/>
	
		<polygon clip-path="url(#SVGID_2_)" fill="none" stroke="#5E514D" stroke-width="2.5" stroke-linecap="round" stroke-linejoin="round" stroke-miterlimit="10" points="
		20.6,63.3 9.9,69.8 1.3,53.7 12,47.2 	"/>
	
		<path clip-path="url(#SVGID_2_)" fill="none" stroke="#5E514D" stroke-width="2.5" stroke-linecap="round" stroke-linejoin="round" stroke-miterlimit="10" d="
		M28.1,55.9h11.8c1.7,0,3.1-1.4,3.1-3.1c0-1.7-1.4-3.1-3.1-3.1h-8l-1.1-0.8C28.2,47,25.1,46,22,46c-2,0-4,0.4-5.8,1.2l-2.9,1.3"/>
	
		<path clip-path="url(#SVGID_2_)" fill="none" stroke="#5E514D" stroke-width="2.5" stroke-linecap="round" stroke-linejoin="round" stroke-miterlimit="10" d="
		M24.5,67.7c4,1.7,8.4,2.6,13.1,2.6C56.6,70.2,72,54.8,72,35.7C72,16.7,56.6,1.2,37.5,1.2C18.5,1.2,3,16.7,3,35.7
		c0,3.1,0.4,6.2,1.2,9.1"/>
	<path clip-path="url(#SVGID_2_)" fill="#5E514D" d="M49,38.3c-5.6-2-9.2-4.6-11-7.8c-0.1-0.2-0.3-0.3-0.4-0.3h0
		c-0.2,0-0.3,0.1-0.4,0.2c-2.1,3.5-5.1,5.6-11,7.8c-0.2,0.1-0.4,0.3-0.3,0.6c0,0.2,0.3,0.4,0.5,0.4h22.5c0.3,0,0.5-0.2,0.5-0.4
		C49.3,38.6,49.2,38.4,49,38.3"/>
</g>
</svg>
