<?xml version="1.0" encoding="utf-8"?>
<!-- Generator: Adobe Illustrator 18.0.0, SVG Export Plug-In . SVG Version: 6.00 Build 0)  -->
<!DOCTYPE svg PUBLIC "-//W3C//DTD SVG 1.1//EN" "http://www.w3.org/Graphics/SVG/1.1/DTD/svg11.dtd">
<svg version="1.1" id="Layer_1" xmlns="http://www.w3.org/2000/svg" xmlns:xlink="http://www.w3.org/1999/xlink" x="0px" y="0px"
	 viewBox="0 0 73.3 81.4" enable-background="new 0 0 73.3 81.4" xml:space="preserve">
<g>
	<defs>
		<rect id="SVGID_1_" y="0" width="73.3" height="81.4"/>
	</defs>
	<clipPath id="SVGID_2_">
		<use xlink:href="#SVGID_1_"  overflow="visible"/>
	</clipPath>
	
		<line clip-path="url(#SVGID_2_)" fill="none" stroke="#fff" stroke-width="2.5" stroke-linecap="round" stroke-linejoin="round" stroke-miterlimit="10" x1="47.1" y1="80.1" x2="27.5" y2="80.1"/>
	
		<circle clip-path="url(#SVGID_2_)" fill="none" stroke="#fff" stroke-width="2.5" stroke-linecap="round" stroke-linejoin="round" stroke-miterlimit="10" cx="37.9" cy="29.2" r="13"/>
	
		<path clip-path="url(#SVGID_2_)" fill="none" stroke="#fff" stroke-width="2.5" stroke-linecap="round" stroke-linejoin="round" stroke-miterlimit="10" d="
		M28.9,21.6l4.2,1.6c0.7,0.3,1.1,1.1,0.9,1.9l-0.8,2.7c-0.2,0.8,0.2,1.6,0.9,1.9l1.8,0.7c0.6,0.2,0.9,0.7,1,1.3l0.4,5.2
		c0.1,0.9-0.6,1.6-1.5,1.6h-0.4c-0.6,0-1.2-0.4-1.4-0.9l-1.4-3.1c-0.2-0.6-0.8-0.9-1.4-0.9h-1.2c-0.5,0-0.9-0.2-1.2-0.6l-2.8-3.8"/>
	
		<path clip-path="url(#SVGID_2_)" fill="none" stroke="#fff" stroke-width="2.5" stroke-linecap="round" stroke-linejoin="round" stroke-miterlimit="10" d="
		M46.8,20L43,22.6c-0.6,0.4-0.8,1.2-0.5,1.9l0.4,1c0.2,0.5,0.1,1.1-0.2,1.6l-1.7,2.1c-0.3,0.4-0.4,0.9-0.3,1.4
		c0.2,0.8,1,1.3,1.9,1.1l3.8-1c0.3-0.1,0.7-0.1,1,0.1l2.6,1.1"/>
	
		<path clip-path="url(#SVGID_2_)" fill="none" stroke="#fff" stroke-width="2.5" stroke-linecap="round" stroke-linejoin="round" stroke-miterlimit="10" d="
		M43,53l9.7-2.1c0.9-0.2,2.1,0.2,2.5,1.2c0.4,1-0.3,2-1.2,2.5L37,61.8c-2.7,1-6,1.5-9,1.5c-2,0-3.6-0.2-5.5-0.7l-1.9-0.6"/>
	
		<polygon clip-path="url(#SVGID_2_)" fill="none" stroke="#fff" stroke-width="2.5" stroke-linecap="round" stroke-linejoin="round" stroke-miterlimit="10" points="
		20.6,63.3 9.9,69.8 1.3,53.7 12,47.2 	"/>
	
		<path clip-path="url(#SVGID_2_)" fill="none" stroke="#fff" stroke-width="2.5" stroke-linecap="round" stroke-linejoin="round" stroke-miterlimit="10" d="
		M28.1,55.9h11.8c1.7,0,3.1-1.4,3.1-3.1c0-1.7-1.4-3.1-3.1-3.1h-8l-1.1-0.8C28.2,47,25.1,46,22,46c-2,0-4,0.4-5.8,1.2l-2.9,1.3"/>
	
		<path clip-path="url(#SVGID_2_)" fill="none" stroke="#fff" stroke-width="2.5" stroke-linecap="round" stroke-linejoin="round" stroke-miterlimit="10" d="
		M24.5,67.7c4,1.7,8.4,2.6,13.1,2.6C56.6,70.2,72,54.8,72,35.7S56.6,1.2,37.5,1.2C18.5,1.2,3,16.7,3,35.7c0,3.1,0.4,6.2,1.2,9.1"/>
</g>
</svg>
