<?xml version="1.0" encoding="utf-8"?>
<!-- Generator: Adobe Illustrator 18.0.0, SVG Export Plug-In . SVG Version: 6.00 Build 0)  -->
<!DOCTYPE svg PUBLIC "-//W3C//DTD SVG 1.1//EN" "http://www.w3.org/Graphics/SVG/1.1/DTD/svg11.dtd">
<svg version="1.1" id="Layer_1" xmlns="http://www.w3.org/2000/svg" xmlns:xlink="http://www.w3.org/1999/xlink" x="0px" y="0px"
	 viewBox="0 0 71.5 81.3" enable-background="new 0 0 71.5 81.3" xml:space="preserve">
<g>
	<defs>
		<rect id="SVGID_1_" y="0" width="71.5" height="81.3"/>
	</defs>
	<clipPath id="SVGID_2_">
		<use xlink:href="#SVGID_1_"  overflow="visible"/>
	</clipPath>
	
		<line clip-path="url(#SVGID_2_)" fill="none" stroke="#fff" stroke-width="2.5" stroke-linecap="round" stroke-linejoin="round" stroke-miterlimit="10" x1="45.5" y1="80.1" x2="25.9" y2="80"/>
	
		<circle clip-path="url(#SVGID_2_)" fill="none" stroke="#fff" stroke-width="2.5" stroke-linecap="round" stroke-linejoin="round" stroke-miterlimit="10" cx="35.8" cy="35.7" r="34.5"/>
	<path clip-path="url(#SVGID_2_)" fill="#fff" d="M47.2,39.7c-5.6-2-9.2-4.6-11-7.8c-0.1-0.2-0.3-0.3-0.4-0.3h0
		c-0.2,0-0.3,0.1-0.4,0.2c-2.1,3.5-5.1,5.6-11,7.8c-0.2,0.1-0.4,0.3-0.3,0.6c0,0.2,0.3,0.4,0.5,0.4H47c0.3,0,0.5-0.2,0.5-0.4
		C47.6,40,47.4,39.8,47.2,39.7"/>
</g>
</svg>
