<?xml version="1.0" encoding="utf-8"?>
<!-- Generator: Adobe Illustrator 18.0.0, SVG Export Plug-In . SVG Version: 6.00 Build 0)  -->
<!DOCTYPE svg PUBLIC "-//W3C//DTD SVG 1.1//EN" "http://www.w3.org/Graphics/SVG/1.1/DTD/svg11.dtd">
<svg version="1.1" id="Layer_1" xmlns="http://www.w3.org/2000/svg" xmlns:xlink="http://www.w3.org/1999/xlink" x="0px" y="0px"
	 viewBox="0 0 71.5 81.3" enable-background="new 0 0 71.5 81.3" xml:space="preserve">
<g>
	<defs>
		<rect id="SVGID_1_" y="0" width="71.5" height="81.3"/>
	</defs>
	<clipPath id="SVGID_2_">
		<use xlink:href="#SVGID_1_"  overflow="visible"/>
	</clipPath>
	
		<line clip-path="url(#SVGID_2_)" fill="none" stroke="#fff" stroke-width="2.5" stroke-linecap="round" stroke-linejoin="round" stroke-miterlimit="10" x1="45.5" y1="80.1" x2="25.9" y2="80"/>
	
		<path clip-path="url(#SVGID_2_)" fill="none" stroke="#fff" stroke-width="2.5" stroke-linecap="round" stroke-linejoin="round" stroke-miterlimit="10" d="
		M65.5,53.3c3-5.1,4.7-11,4.8-17.3C70.4,16.9,55,1.4,35.9,1.3C16.9,1.1,1.4,16.5,1.3,35.6c0,6.3,1.6,12.1,4.5,17.2"/>
</g>
<g>
	<defs>
		<rect id="SVGID_3_" y="0" width="71.5" height="81.3"/>
	</defs>
	<clipPath id="SVGID_4_">
		<use xlink:href="#SVGID_3_"  overflow="visible"/>
	</clipPath>
	
		<path clip-path="url(#SVGID_4_)" fill="none" stroke="#fff" stroke-width="2.5" stroke-linecap="round" stroke-linejoin="round" stroke-miterlimit="10" d="
		M2.6,68.4L26,26.4c0.9-1.6,3.2-1.6,4,0l19.5,39.6"/>
	
		<path clip-path="url(#SVGID_4_)" fill="none" stroke="#fff" stroke-width="2.5" stroke-linecap="round" stroke-linejoin="round" stroke-miterlimit="10" d="
		M40.6,46.9l5.7-13.5c0.7-1.4,2.7-1.3,3.3,0l17.5,35"/>
	
		<path clip-path="url(#SVGID_4_)" fill="none" stroke="#fff" stroke-width="2.5" stroke-linecap="round" stroke-linejoin="round" stroke-miterlimit="10" d="
		M21.4,36.1c0,0,6.2,4.2,13.2,0"/>
	
		<path clip-path="url(#SVGID_4_)" fill="none" stroke="#fff" stroke-width="2.5" stroke-linecap="round" stroke-linejoin="round" stroke-miterlimit="10" d="
		M44.6,39.9c0,0,3,2,7,0"/>
	
		<polyline clip-path="url(#SVGID_4_)" fill="none" stroke="#fff" stroke-width="2.5" stroke-linecap="round" stroke-linejoin="round" stroke-miterlimit="10" points="
		28.6,24.4 28.6,13.4 38.9,13.4 34.7,16.6 38.9,19.5 29.5,19.5 	"/>
</g>
</svg>
