<?xml version="1.0" encoding="utf-8"?>
<!-- Generator: Adobe Illustrator 18.0.0, SVG Export Plug-In . SVG Version: 6.00 Build 0)  -->
<!DOCTYPE svg PUBLIC "-//W3C//DTD SVG 1.1//EN" "http://www.w3.org/Graphics/SVG/1.1/DTD/svg11.dtd">
<svg version="1.1" id="Layer_1" xmlns="http://www.w3.org/2000/svg" xmlns:xlink="http://www.w3.org/1999/xlink" x="0px" y="0px"
	 viewBox="0 0 71.5 81.3" enable-background="new 0 0 71.5 81.3" xml:space="preserve">
<g>
	<defs>
		<rect id="SVGID_1_" y="0" width="71.5" height="81.3"/>
	</defs>
	<clipPath id="SVGID_2_">
		<use xlink:href="#SVGID_1_"  overflow="visible"/>
	</clipPath>
	
		<line clip-path="url(#SVGID_2_)" fill="none" stroke="#5E514D" stroke-width="2.5" stroke-linecap="round" stroke-linejoin="round" stroke-miterlimit="10" x1="45.5" y1="80.1" x2="25.9" y2="80"/>
	
		<circle clip-path="url(#SVGID_2_)" fill="none" stroke="#5E514D" stroke-width="2.5" stroke-linecap="round" stroke-linejoin="round" stroke-miterlimit="10" cx="35.8" cy="35.7" r="34.5"/>
	
		<path clip-path="url(#SVGID_2_)" fill="none" stroke="#5E514D" stroke-width="2.5" stroke-linecap="round" stroke-linejoin="round" stroke-miterlimit="10" d="
		M17.6,18.8h28.1c1.4,0,2.5,1.1,2.5,2.5v19.2c0,1.4-1.1,2.5-2.5,2.5H21.3l-6.2,4.4V21.3C15.1,19.9,16.2,18.8,17.6,18.8z"/>
	
		<path clip-path="url(#SVGID_2_)" fill="none" stroke="#5E514D" stroke-width="2.5" stroke-linecap="round" stroke-linejoin="round" stroke-miterlimit="10" d="
		M31.7,46.4v0.8c0,1.4,1.1,2.5,2.5,2.5H51l6.1,4.4V26.8c0-1.4-1.1-2.5-2.5-2.5h-3"/>
	
		<path clip-path="url(#SVGID_2_)" fill="none" stroke="#5E514D" stroke-width="2.5" stroke-linecap="round" stroke-linejoin="round" stroke-miterlimit="10" d="
		M33.2,23.5l1.5,3c0.2,0.4,0.5,0.6,1,0.7l3.3,0.5c1,0.2,1.5,1.4,0.7,2.2l-2.4,2.4c-0.3,0.3-0.4,0.7-0.4,1.1l0.6,3.3
		c0.2,1-0.9,1.8-1.8,1.3l-3-1.6c-0.4-0.2-0.8-0.2-1.2,0l-3,1.6c-0.9,0.5-2-0.3-1.8-1.3l0.6-3.3c0.1-0.4-0.1-0.8-0.4-1.1l-2.4-2.4
		c-0.8-0.7-0.3-2,0.7-2.2l3.3-0.5c0.4-0.1,0.8-0.3,1-0.7l1.5-3C31.4,22.6,32.8,22.6,33.2,23.5z"/>
</g>
</svg>
