<?xml version="1.0" encoding="utf-8"?>
<!-- Generator: Adobe Illustrator 18.0.0, SVG Export Plug-In . SVG Version: 6.00 Build 0)  -->
<!DOCTYPE svg PUBLIC "-//W3C//DTD SVG 1.1//EN" "http://www.w3.org/Graphics/SVG/1.1/DTD/svg11.dtd">
<svg version="1.1" id="Layer_1" xmlns="http://www.w3.org/2000/svg" xmlns:xlink="http://www.w3.org/1999/xlink" x="0px" y="0px"
	 viewBox="0 0 71.5 81.3" enable-background="new 0 0 71.5 81.3" xml:space="preserve">
<g>
	<defs>
		<rect id="SVGID_1_" y="0" width="71.5" height="81.3"/>
	</defs>
	<clipPath id="SVGID_2_">
		<use xlink:href="#SVGID_1_"  overflow="visible"/>
	</clipPath>
	
		<line clip-path="url(#SVGID_2_)" fill="none" stroke="#5E514D" stroke-width="2.5" stroke-linecap="round" stroke-linejoin="round" stroke-miterlimit="10" x1="45.2" y1="80.1" x2="25.6" y2="80"/>
	
		<circle clip-path="url(#SVGID_2_)" fill="none" stroke="#5E514D" stroke-width="2.5" stroke-linecap="round" stroke-linejoin="round" stroke-miterlimit="10" cx="35.8" cy="35.7" r="34.5"/>
	<path clip-path="url(#SVGID_2_)" fill="#5E514D" d="M43,41.3c-4.1-1.5-6.7-3.3-8-5.7c-0.1-0.1-0.2-0.2-0.3-0.2h0
		c-0.1,0-0.3,0.1-0.3,0.2c-1.6,2.5-3.7,4.1-8,5.7c-0.2,0.1-0.3,0.2-0.2,0.4c0,0.2,0.2,0.3,0.4,0.3h16.4c0.2,0,0.3-0.1,0.4-0.3
		C43.3,41.6,43.2,41.4,43,41.3"/>
</g>
<g>
	<defs>
		<rect id="SVGID_3_" y="0" width="71.5" height="81.3"/>
	</defs>
	<clipPath id="SVGID_4_">
		<use xlink:href="#SVGID_3_"  overflow="visible"/>
	</clipPath>
	
		<path clip-path="url(#SVGID_4_)" fill="none" stroke="#5E514D" stroke-width="2.5" stroke-linecap="round" stroke-linejoin="round" stroke-miterlimit="10" d="
		M52.3,14.4H20.5c0,0-3.3,0-3.3,3.3c0,3.3,3.3,3.3,3.3,3.3h31.7v37.3H23.9c0,0-6.1,0-6.1-6.1V19.5"/>
	
		<line clip-path="url(#SVGID_4_)" fill="none" stroke="#5E514D" stroke-width="2.5" stroke-linecap="round" stroke-linejoin="round" stroke-miterlimit="10" x1="20" y1="17.8" x2="51.1" y2="17.8"/>
</g>
</svg>
