<?xml version="1.0" encoding="utf-8"?>
<!-- Generator: Adobe Illustrator 18.0.0, SVG Export Plug-In . SVG Version: 6.00 Build 0)  -->
<!DOCTYPE svg PUBLIC "-//W3C//DTD SVG 1.1//EN" "http://www.w3.org/Graphics/SVG/1.1/DTD/svg11.dtd">
<svg version="1.1" id="Layer_1" xmlns="http://www.w3.org/2000/svg" xmlns:xlink="http://www.w3.org/1999/xlink" x="0px" y="0px"
	 viewBox="0 0 71.5 81.4" enable-background="new 0 0 71.5 81.4" xml:space="preserve">
<g>
	<defs>
		<rect id="SVGID_1_" y="0" width="71.5" height="81.4"/>
	</defs>
	<clipPath id="SVGID_2_">
		<use xlink:href="#SVGID_1_"  overflow="visible"/>
	</clipPath>
	
		<line clip-path="url(#SVGID_2_)" fill="none" stroke="#fff" stroke-width="2.5" stroke-linecap="round" stroke-linejoin="round" stroke-miterlimit="10" x1="45.5" y1="80.2" x2="25.9" y2="80"/>
	
		<circle clip-path="url(#SVGID_2_)" fill="none" stroke="#fff" stroke-width="2.5" stroke-linecap="round" stroke-linejoin="round" stroke-miterlimit="10" cx="35.8" cy="35.7" r="34.5"/>
	<path clip-path="url(#SVGID_2_)" fill="#fff" d="M43.3,34.9c-0.6,0-1.1-0.5-1.1-1.1c0-1.9-0.2-3.8-0.4-5.6
		c-0.1-0.6,0.4-1.1,1-1.2c0.6-0.1,1.1,0.4,1.2,1c0.2,1.9,0.3,3.8,0.4,5.8C44.4,34.4,44,34.9,43.3,34.9L43.3,34.9z"/>
	<path clip-path="url(#SVGID_2_)" fill="#fff" d="M35.8,60.8c-3.5,0-6.4-5.2-7.9-14c-0.1-0.6,0.3-1.2,0.9-1.2
		c0.6-0.1,1.2,0.3,1.2,0.9c1.4,8.4,3.9,12.2,5.7,12.2c1.2,0,3-1.8,4.5-6.8c0.2-0.6,0.8-0.9,1.4-0.7c0.6,0.2,0.9,0.8,0.7,1.4
		C40.7,57.9,38.4,60.8,35.8,60.8"/>
	<path clip-path="url(#SVGID_2_)" fill="#fff" d="M29,47.6c-0.5,0-1-0.4-1.1-0.9c-0.1-0.4-0.1-0.8-0.2-1.3
		c-0.1-0.6,0.3-1.1,0.9-1.2c0.6-0.1,1.1,0.3,1.2,0.9c0.1,0.4,0.1,0.8,0.2,1.2c0.1,0.6-0.3,1.2-0.9,1.2C29.1,47.6,29,47.6,29,47.6"/>
	<path clip-path="url(#SVGID_2_)" fill="#fff" d="M28.2,34.7L28.2,34.7c-0.6,0-1.1-0.5-1.1-1.1c0.3-11,3.2-22.8,8.7-22.8
		c2.8,0,5.3,3.4,6.9,9.4c0.2,0.6-0.2,1.2-0.8,1.3c-0.6,0.2-1.2-0.2-1.3-0.8C39,15,37,12.9,35.8,12.9c-2.8,0-6.1,8.3-6.5,20.7
		C29.2,34.2,28.8,34.7,28.2,34.7"/>
	<path clip-path="url(#SVGID_2_)" fill="#fff" d="M41.1,42.4c-0.4,0-0.7-0.2-0.9-0.5c-0.3-0.5-0.2-1.2,0.4-1.5
		c10.4-6.4,16-13.6,14.6-16c-0.2-0.4-0.7-0.7-1.4-0.9c-3.9-1.1-12.6,1.7-21.1,6.7c-0.5,0.3-1.2,0.1-1.5-0.4
		c-0.3-0.5-0.1-1.2,0.4-1.5c9.1-5.3,18.2-8.1,22.8-6.9c1.3,0.3,2.2,1,2.8,2c2.6,4.6-5.8,13-15.4,19C41.5,42.3,41.3,42.4,41.1,42.4"
		/>
	<path clip-path="url(#SVGID_2_)" fill="#fff" d="M19.8,50.4c-2.6,0-4.4-0.7-5.3-2.2c-1.4-2.5,0.3-6.5,5-11
		c0.4-0.4,1.1-0.4,1.5,0c0.4,0.4,0.4,1.1,0,1.5c-4.5,4.4-5.3,7.3-4.7,8.4c0.8,1.5,5,1.8,12.3-0.8c0.6-0.2,1.2,0.1,1.4,0.6
		c0.2,0.6-0.1,1.2-0.6,1.4C25.6,49.7,22.3,50.4,19.8,50.4"/>
	<path clip-path="url(#SVGID_2_)" fill="#fff" d="M51.8,50.4c-4.9,0-12.6-2.7-20.3-7.2c-10.3-6-19.7-15.1-17-19.9
		c1.7-2.9,7.1-3,15-0.1c0.6,0.2,0.9,0.8,0.6,1.4c-0.2,0.6-0.8,0.9-1.4,0.6c-7.3-2.7-11.5-2.3-12.3-0.8c-1.3,2.3,4.2,9.9,16.2,17
		c8.5,5,17.2,7.7,21.1,6.7c0.7-0.2,1.2-0.5,1.4-0.9c0.6-1.1-0.2-4-4.5-8.3c-0.4-0.4-0.4-1.1,0-1.5c0.4-0.4,1.1-0.4,1.5,0
		c4.6,4.5,6.3,8.4,4.9,10.9c-0.5,0.9-1.5,1.6-2.8,2C53.5,50.3,52.7,50.4,51.8,50.4"/>
	<path clip-path="url(#SVGID_2_)" fill="#fff" d="M33.6,35.8c0,1.2,1,2.2,2.2,2.2c1.2,0,2.2-1,2.2-2.2c0-1.2-1-2.2-2.2-2.2
		C34.6,33.6,33.6,34.6,33.6,35.8"/>
</g>
</svg>
