<?xml version="1.0" encoding="utf-8"?>
<!-- Generator: Adobe Illustrator 18.0.0, SVG Export Plug-In . SVG Version: 6.00 Build 0)  -->
<!DOCTYPE svg PUBLIC "-//W3C//DTD SVG 1.1//EN" "http://www.w3.org/Graphics/SVG/1.1/DTD/svg11.dtd">
<svg version="1.1" id="Layer_1" xmlns="http://www.w3.org/2000/svg" xmlns:xlink="http://www.w3.org/1999/xlink" x="0px" y="0px"
	 viewBox="0 0 1028 66.6" enable-background="new 0 0 1028 66.6" xml:space="preserve">
<g>
	<defs>
		<rect id="SVGID_1_" y="0" width="1028" height="66.6"/>
	</defs>
	<clipPath id="SVGID_2_">
		<use xlink:href="#SVGID_1_"  overflow="visible"/>
	</clipPath>
	<path clip-path="url(#SVGID_2_)" fill="#FFFFFF" d="M45.9,46.7c0.1,12.8-10.7,19.4-23,19.5C10.5,66.3,3.8,62,0,56.3c1-2.1,4-8,4-8
		l1.1,0c0.2,7.1,3.8,9.9,7.5,11.5c5,2.2,13.1,1.9,17.8,0.2c6.2-2.4,7.2-6.7,6.8-11.5c-0.5-5.9-7-9.6-16.1-12.7
		c-2.7-0.9-10-3.2-14.7-7.4c-4.2-3.8-5-7.9-4.4-12.9C2.7,8.6,7.8,3.7,14.3,1.6c5.4-1.8,10.9-1.6,14.2-1c3.6,0.6,6.1,1.6,8.7,3.1
		c1.8,1.1,3.9,3.1,5,4.5c-1.2,2.5-3.5,7.1-3.5,7.1l-1,0c-0.2-3.8-2.3-10-13.8-10.3c-8.3-0.2-13.9,4-14.5,8.7c-0.6,4.5,1,6.4,3.8,8.3
		c6,4.1,13,5.6,18,7.8C42.9,34.7,45.8,41,45.9,46.7 M110.4,27.6H73.8V1.2h-9.1v63.9h9.1V33.9h36.6v31.2h9.1V1.2h-9.1V27.6z M169.9,0
		l27.9,65.1h-9.9l-10-23.9h-23.2l-9.3,23.9h-6.8L164.8,0H169.9z M175.5,35.5l-9.3-22.1h-0.7L157,35.5H175.5z M623.9,65.1l-10-23.9
		h-23.2l-9.3,23.9h-6.8L600.7,0h5.2l27.9,65.1H623.9z M611.4,35.5l-9.3-22.1h-0.7l-8.6,22.1H611.4z M272.7,66.3V1.2h-7v47.5
		C259,42,226.8,7.1,220.3,0h-3.9v65.1h7V16.6c12.9,13.7,35,37,45.6,49.6H272.7z M354.7,35.3h-19.3V41H346l0,18.2
		c-6.9,3.5-19.9,3.7-27.2,0c-12-6.1-14.1-17.1-13.7-28.4c0.4-10.9,5.9-25.1,24-26.2c10.7-0.7,17.9,4,22.2,8.9h1.2l3-7.8
		c-13.5-7-30.1-6.9-41-2.6C297,9.9,294.6,26.5,295,35.2c1,21.3,14.7,30.7,34.1,31.2c6.4,0.2,18.4-1.5,25.6-4.3V35.3z M740.3,35.3
		h-19.3V41h10.5l0,18.2c-6.9,3.5-19.9,3.7-27.2,0c-12-6.1-14.1-17.1-13.7-28.4c0.4-10.9,5.9-25.1,24-26.2c10.7-0.7,17.9,4,22.2,8.9
		h1.2l3-7.8c-13.5-7-30.1-6.9-41.1-2.6c-17.4,6.8-19.8,23.4-19.3,32.1c1,21.3,14.7,30.7,34.1,31.2c6.4,0.2,18.4-1.5,25.6-4.3V35.3z
		 M430.5,60.8v4.1c-2.6,1.8-8.6,1.5-10.9,0.6c-2.3-0.9-4.7-2.2-7.3-6.1c-2.6-3.9-8.7-12.8-11.8-17.5c-3.1-4.6-6.2-4.8-12.9-4.6v27.8
		h-9.1V1.3l21.4,0c12.7,0,20.3,7.5,20.3,16.7c0,10.6-7.8,16.5-15.5,17.3c2.6,1.4,4.1,4.3,6.5,7.9c1.3,2,6.6,10.2,8.7,13
		C421.9,58.9,424.9,62.1,430.5,60.8 M406.9,28.2c2.2-2.2,3.9-5.1,3.9-9.9c0-5.2-4.1-12.2-14.6-12.2h-8.6v26.3h8.7
		C401.9,32.4,405,30.1,406.9,28.2 M817.2,60.8v4.1c-2.6,1.8-8.6,1.5-10.9,0.6c-2.3-0.9-4.7-2.2-7.3-6.1c-2.6-3.9-8.7-12.8-11.8-17.5
		c-3.1-4.6-6.2-4.8-12.9-4.6v27.8h-9.1V1.3l21.4,0c12.7,0,20.3,7.5,20.3,16.7c0,10.6-7.8,16.5-15.5,17.3c2.6,1.4,4.1,4.3,6.5,7.9
		c1.3,2,6.6,10.2,8.7,13C808.6,58.9,811.6,62.1,817.2,60.8 M793.6,28.2c2.2-2.2,3.9-5.1,3.9-9.9c0-5.2-4.1-12.2-14.6-12.2h-8.6v26.3
		h8.7C788.7,32.4,791.7,30.1,793.6,28.2 M455.4,1.2h-9.2v63.9h9.2V1.2z M561.5,57.7c-7.5,2.2-25.2,1.9-25.2,1.9V1.2h-9.2v63.9h34.4
		V57.7z M893.7,32.7c0,20.1-12.2,33.9-35.7,33.9c-18.8,0-33.8-12-33.8-33.5c0-18.3,11.6-33,35.3-33C881.4,0,893.7,14.7,893.7,32.7
		 M883.8,32.8c0-15.6-7.8-28.4-24.3-28.4c-18.4,0-25.3,12.8-25.3,28.6c0,22.5,12.8,29.1,24.3,29.1C876.7,62.2,883.8,49.7,883.8,32.8
		 M959.7,40.8c0,6.6-2.4,15.9-10.9,19.1c-5.3,2.1-16.1,2.2-21.5-2.6c-4.2-3.8-6.2-8.5-6.2-19.6V1.2h-9c0,4,0.1,28.8,0.1,38
		c0,13.2,3.9,19,8.1,22.2c8.8,6.7,28.9,7.5,37.7-1.7c6.8-7.3,7.6-13.2,7.7-27.9c0-9.4,0.1-30.6,0.1-30.6h-6.2L959.7,40.8z
		 M1023.2,33.3c-3.8,4-12.4,9.5-28.7,5.6V65h-9.1V1.1h19.3c6.5,0,10.8,0.3,16.2,4.2C1029.3,11.2,1030.4,25.5,1023.2,33.3
		 M1018.3,21.1c0-6.8-4.4-15.1-14.7-15.1h-9.1v28.3c0,0,2.3,1,10,1C1010.5,35.3,1018.3,30.6,1018.3,21.1 M509.4,37.2
		C500.5,34,494.9,30,492.2,25c-0.1-0.3-0.4-0.4-0.7-0.4h0c-0.3,0-0.5,0.1-0.7,0.4c-3.3,5.4-8,8.7-17.2,12.2
		c-0.4,0.1-0.6,0.5-0.5,0.9c0.1,0.4,0.4,0.7,0.8,0.7h35.2c0.4,0,0.7-0.3,0.8-0.7C509.9,37.7,509.7,37.3,509.4,37.2"/>
</g>
</svg>
